<svg width="18" height="18" viewBox="0 0 18 18" fill="none" xmlns="http://www.w3.org/2000/svg">
<path d="M16.7463 13.5131C17.5029 12.204 17.9425 10.687 17.9543 9.06746C17.9902 4.13308 14.0294 0.0654773 9.12023 0.000789937C4.06737 -0.0656904 -0.0357419 4.07265 0.0466291 9.14959C0.126539 14.0728 4.16939 18.0368 9.06823 17.9997C10.4971 17.9889 11.8448 17.6399 13.0395 17.0317L15.413 17.0265C16.1535 17.0249 16.7526 16.4202 16.7509 15.6759L16.7463 13.5131Z" fill="#173792"/>
<path d="M8.15794 0.0395508C3.55694 0.470812 -0.0304677 4.39916 0.0466298 9.14954C0.121512 13.7641 3.67816 17.536 8.1579 17.9602V0.0395508H8.15794Z" fill="#173792"/>
<path d="M8.3181 17.9735V0.026123C7.66086 0.0759394 7.02344 0.196631 6.41355 0.381236V5.13411L3.32086 2.04142C2.85483 2.42606 2.42828 2.85711 2.04793 3.32743L5.13401 6.41351H0.420653C0.162994 7.2781 0.031193 8.19733 0.0466266 9.1495C0.0603375 9.99522 0.191013 10.8127 0.422903 11.5864H5.13404L2.05306 14.6673C2.43387 15.1374 2.86084 15.5681 3.32663 15.9527L6.41355 12.8658V17.6154C7.02411 17.8016 7.66163 17.9233 8.3181 17.9735Z" fill="white"/>
<path d="M9.69027 0.0261033L9.69027 17.9735C10.3475 17.9237 10.9849 17.803 11.5948 17.6184L11.5948 12.8655L14.6875 15.9582C15.1535 15.5736 15.5801 15.1425 15.9604 14.6722L12.8744 11.5861L17.5862 11.5861C17.8438 10.7215 17.9756 9.8023 17.9602 8.85013C17.9465 8.00441 17.8158 7.18696 17.5839 6.41328L12.8743 6.41328L15.9553 3.3323C15.5745 2.86219 15.1475 2.43156 14.6817 2.04691L11.5948 5.13384L11.5948 0.384239C10.9843 0.198051 10.3467 0.0763066 9.69027 0.0261033Z" fill="white"/>
<path d="M17.836 7.54105H10.4589V0.120074C10.0224 0.0476526 9.5755 0.00680111 9.12027 0.000789402C8.58174 -0.00631215 8.05401 0.0346096 7.54101 0.11916V7.54102H0.16268C0.0779538 8.06354 0.0377 8.60105 0.0466296 9.14955C0.0538718 9.59463 0.0937741 10.0318 0.163489 10.4589H7.54094V17.8798C8.03788 17.9624 8.54817 18.0036 9.06816 17.9997C9.54158 17.9961 10.0059 17.9549 10.4589 17.8798V10.459H17.8365C17.9104 10.0056 17.9508 9.54098 17.9542 9.0675C17.958 8.54782 17.9174 8.03781 17.836 7.54105Z" fill="#DF3F7C"/>
</svg>
