<svg width="15" height="15" viewBox="0 0 15 15" fill="none" xmlns="http://www.w3.org/2000/svg">
<path d="M7.5 15C11.6421 15 15 11.6421 15 7.5C15 3.35786 11.6421 0 7.5 0C3.35786 0 0 3.35786 0 7.5C0 11.6421 3.35786 15 7.5 15Z" fill="white"/>
<path d="M7.45853 6.9708L8.33353 6.11663C8.44538 6.00869 8.59475 5.94836 8.7502 5.94836C8.90564 5.94836 9.05501 6.00869 9.16686 6.11663C9.39186 6.33747 9.39186 6.69997 9.16686 6.9208L7.91686 8.1333C7.86395 8.19613 7.7987 8.24743 7.72515 8.28402C7.65161 8.3206 7.57133 8.3417 7.4893 8.346C7.40727 8.35029 7.32523 8.3377 7.24827 8.309C7.1713 8.28029 7.10105 8.23609 7.04186 8.17913L4.0002 5.22913C3.9456 5.17736 3.90213 5.115 3.87241 5.04587C3.8427 4.97675 3.82738 4.90229 3.82738 4.82705C3.82738 4.75181 3.8427 4.67735 3.87241 4.60823C3.90213 4.5391 3.9456 4.47675 4.0002 4.42497C4.11184 4.31825 4.26034 4.2587 4.41478 4.2587C4.56922 4.2587 4.71772 4.31825 4.82936 4.42497L7.45436 6.9708H7.45853ZM4.41686 6.5583C4.7377 6.5583 5.0002 6.84997 5.0002 7.20413V10.9125C5.0002 11.2708 4.7377 11.5625 4.41686 11.5625C4.0877 11.5625 3.8252 11.2708 3.8252 10.9166V7.2083C3.8252 6.8458 4.0877 6.5583 4.4127 6.5583H4.41686ZM10.5877 4.2583C10.9127 4.2583 11.1752 4.53747 11.1752 4.8833V10.9416C11.1752 11.2833 10.9127 11.5625 10.5919 11.5625C10.2669 11.5625 10.0044 11.2833 10.0044 10.9416V4.87913C10.0044 4.53747 10.2669 4.2583 10.5877 4.2583Z" fill="#5E4EA1"/>
</svg>
