<svg width="17" height="17" viewBox="0 0 17 17" fill="none" xmlns="http://www.w3.org/2000/svg">
<path d="M8.50078 13.3875C11.2001 13.3875 13.3883 11.1993 13.3883 8.50005C13.3883 5.80076 11.2001 3.61255 8.50078 3.61255C5.80149 3.61255 3.61328 5.80076 3.61328 8.50005C3.61328 11.1993 5.80149 13.3875 8.50078 13.3875Z" fill="#FCD462"/>
<path d="M10.8163 4.18628C11.0289 4.86627 11.1776 5.58877 11.1988 6.33254C11.3263 9.28629 9.32883 11.9 6.73633 13.0476C7.28882 13.2601 7.88383 13.3876 8.50007 13.3876C11.1988 13.3876 13.3876 11.1988 13.3876 8.50008C13.3876 6.63001 12.3463 5.015 10.8163 4.18628Z" fill="#F6C358"/>
<path d="M8.49984 0C8.09608 0 7.77734 0.31874 7.77734 0.722501V1.91251C7.77734 2.31627 8.09608 2.63501 8.49984 2.63501C8.9036 2.63501 9.22234 2.31627 9.22234 1.91251V0.722501C9.22234 0.31874 8.9036 0 8.49984 0Z" fill="#F6C358"/>
<path d="M8.49984 14.365C8.09608 14.365 7.77734 14.6837 7.77734 15.0875V16.2775C7.77734 16.6813 8.09608 17 8.49984 17C8.9036 17 9.22234 16.6813 9.22234 16.2775V15.0875C9.22234 14.6837 8.9036 14.365 8.49984 14.365Z" fill="#F6C358"/>
<path d="M17.0002 8.50009C17.0002 8.09633 16.6815 7.77759 16.2777 7.77759H15.0877C14.684 7.77759 14.3652 8.09633 14.3652 8.50009C14.3652 8.90385 14.684 9.22259 15.0877 9.22259H16.2777C16.6815 9.22259 17.0002 8.90385 17.0002 8.50009Z" fill="#F6C358"/>
<path d="M2.63501 8.50009C2.63501 8.09633 2.31627 7.77759 1.91251 7.77759H0.722501C0.31874 7.77759 0 8.09633 0 8.50009C0 8.90385 0.31874 9.22259 0.722501 9.22259H1.91251C2.31624 9.22259 2.63501 8.90385 2.63501 8.50009Z" fill="#F6C358"/>
<path d="M14.5127 2.48625C14.2365 2.20999 13.769 2.20999 13.4927 2.48625L12.6427 3.33625C12.3665 3.61251 12.3665 4.07998 12.6427 4.35625C12.919 4.63251 13.3865 4.63251 13.6627 4.35625L14.5127 3.50625C14.789 3.23002 14.789 2.76252 14.5127 2.48625Z" fill="#F6C358"/>
<path d="M4.35649 12.6437C4.08023 12.3675 3.61275 12.3675 3.33649 12.6437L2.4865 13.4937C2.21023 13.77 2.21023 14.2375 2.4865 14.5137C2.76276 14.79 3.23023 14.79 3.5065 14.5137L4.35649 13.6637C4.63276 13.3875 4.63276 12.9412 4.35649 12.6437Z" fill="#F6C358"/>
<path d="M14.5127 14.5137C14.789 14.2375 14.789 13.77 14.5127 13.4937L13.6627 12.6437C13.3865 12.3675 12.919 12.3675 12.6427 12.6437C12.3665 12.92 12.3665 13.3875 12.6427 13.6637L13.4927 14.5137C13.769 14.79 14.2365 14.79 14.5127 14.5137Z" fill="#F6C358"/>
<path d="M4.35649 4.35625C4.63276 4.07998 4.63276 3.61251 4.35649 3.33625L3.5065 2.48625C3.23023 2.20999 2.76276 2.20999 2.4865 2.48625C2.21023 2.76252 2.21023 3.22999 2.4865 3.50625L3.33649 4.35625C3.61275 4.63251 4.05899 4.63251 4.35649 4.35625Z" fill="#F6C358"/>
</svg>
