<svg width="19" height="20" viewBox="0 0 19 20" fill="none" xmlns="http://www.w3.org/2000/svg">
<path d="M12.6066 14.572C12.49 15.0915 12.1825 15.2187 11.7478 14.9749L9.37277 13.2254L8.22768 14.3281C8.10045 14.4554 7.99442 14.5614 7.75056 14.5614L7.9202 12.144L12.3203 8.16797C12.5112 7.99833 12.2779 7.9029 12.0234 8.07254L6.58426 11.4972L4.24107 10.7656C3.73214 10.6066 3.72154 10.2567 4.3471 10.0128L13.5078 6.48214C13.9319 6.3231 14.303 6.57757 14.1652 7.22433L12.6066 14.572ZM19 10.2143C19 4.96596 14.7483 0.714284 9.5 0.714284C4.25167 0.714284 0 4.96596 0 10.2143C0 15.4626 4.25167 19.7143 9.5 19.7143C14.7483 19.7143 19 15.4626 19 10.2143Z" fill="#17B3E3"/>
</svg>
