<svg width="18" height="18" fill="none" xmlns="http://www.w3.org/2000/svg"><path d="M16.746 13.513a8.989 8.989 0 0 0 1.208-4.446C17.99 4.133 14.03.065 9.12.001 4.067-.066-.036 4.073.047 9.15c.08 4.923 4.122 8.887 9.021 8.85a8.876 8.876 0 0 0 3.972-.968l2.373-.006a1.344 1.344 0 0 0 1.338-1.35l-.005-2.163z" fill="#173792"/><path d="M8.158.04C3.557.47-.03 4.4.047 9.15c.075 4.614 3.631 8.386 8.11 8.81V.04z" fill="#173792"/><path d="M8.318 17.974V.026c-.657.05-1.295.17-1.904.355v4.753L3.32 2.041a9.03 9.03 0 0 0-1.273 1.286l3.086 3.087H.421a9.051 9.051 0 0 0 .002 5.172h4.711l-3.08 3.081c.38.47.807.901 1.273 1.286l3.087-3.087v4.75c.61.186 1.248.307 1.904.358zM9.69.026v17.948a8.887 8.887 0 0 0 1.905-.356v-4.752l3.092 3.092a9.028 9.028 0 0 0 1.273-1.286l-3.086-3.086h4.712a9.054 9.054 0 0 0-.002-5.173h-4.71l3.081-3.08a9.049 9.049 0 0 0-1.273-1.286l-3.087 3.087V.384A8.834 8.834 0 0 0 9.69.026z" fill="#fff"/><path d="M17.836 7.541h-7.377V.121A8.89 8.89 0 0 0 7.54.118V7.54H.163a9.116 9.116 0 0 0 0 2.918h7.378v7.42a8.901 8.901 0 0 0 2.918 0v-7.42h7.378a9.049 9.049 0 0 0-.001-2.918z" fill="#DF3F7C"/></svg>