<svg width="15" height="15" fill="none" xmlns="http://www.w3.org/2000/svg"><path d="M7.5 15a7.5 7.5 0 1 0 0-15 7.5 7.5 0 0 0 0 15z" fill="#fff"/><path d="M7.459 6.97l.875-.853a.6.6 0 0 1 .833 0 .563.563 0 0 1 0 .804l-1.25 1.212a.6.6 0 0 1-.875.046L4 5.23a.554.554 0 0 1 0-.804.6.6 0 0 1 .83 0l2.624 2.546h.005zm-3.042-.412c.32 0 .583.292.583.646v3.708c0 .359-.262.65-.583.65-.33 0-.592-.291-.592-.645V7.208c0-.362.263-.65.588-.65h.004zm6.17-2.3c.326 0 .588.28.588.625v6.059c0 .341-.262.62-.583.62-.325 0-.588-.279-.588-.62V4.879c0-.342.263-.62.584-.62z" fill="#5E4EA1"/></svg>