<svg width="17" height="17" fill="none" xmlns="http://www.w3.org/2000/svg"><path d="M8.5 13.387a4.887 4.887 0 1 0 0-9.774 4.887 4.887 0 0 0 0 9.774z" fill="#FCD462"/><path d="M10.816 4.186c.213.68.362 1.403.383 2.147.127 2.953-1.87 5.567-4.463 6.715.553.212 1.148.34 1.764.34A4.888 4.888 0 0 0 13.388 8.5a4.896 4.896 0 0 0-2.572-4.314zM8.5 0a.717.717 0 0 0-.723.723v1.19c0 .403.32.722.723.722a.717.717 0 0 0 .722-.722V.723A.717.717 0 0 0 8.5 0zm0 14.365a.716.716 0 0 0-.723.723v1.19c0 .403.32.722.723.722a.716.716 0 0 0 .722-.723v-1.19a.716.716 0 0 0-.722-.722zM17 8.5a.716.716 0 0 0-.722-.722h-1.19a.717.717 0 0 0-.723.722c0 .404.319.723.723.723h1.19A.716.716 0 0 0 17 8.5zm-14.365 0a.717.717 0 0 0-.722-.722H.723A.717.717 0 0 0 0 8.5c0 .404.319.723.723.723h1.19a.717.717 0 0 0 .722-.723zm11.878-6.014a.731.731 0 0 0-1.02 0l-.85.85a.731.731 0 0 0 0 1.02.731.731 0 0 0 1.02 0l.85-.85a.731.731 0 0 0 0-1.02zM4.356 12.644a.731.731 0 0 0-1.02 0l-.85.85a.731.731 0 0 0 0 1.02.731.731 0 0 0 1.02 0l.85-.85a.731.731 0 0 0 0-1.02zm10.157 1.87a.731.731 0 0 0 0-1.02l-.85-.85a.731.731 0 0 0-1.02 0 .731.731 0 0 0 0 1.02l.85.85a.731.731 0 0 0 1.02 0zM4.356 4.356a.731.731 0 0 0 0-1.02l-.85-.85a.731.731 0 0 0-1.02 0 .731.731 0 0 0 0 1.02l.85.85a.731.731 0 0 0 1.02 0z" fill="#F6C358"/></svg>